<svg width="32" height="24" viewBox="0 0 32 24" fill="none" xmlns="http://www.w3.org/2000/svg">
<path d="M31.6812 5.60009C31.6812 5.60009 31.3688 3.39384 30.4062 2.42509C29.1875 1.15009 27.825 1.14384 27.2 1.06884C22.725 0.743835 16.0063 0.743835 16.0063 0.743835H15.9937C15.9937 0.743835 9.275 0.743835 4.8 1.06884C4.175 1.14384 2.8125 1.15009 1.59375 2.42509C0.63125 3.39384 0.325 5.60009 0.325 5.60009C0.325 5.60009 0 8.19384 0 10.7813V13.2063C0 15.7938 0.31875 18.3876 0.31875 18.3876C0.31875 18.3876 0.63125 20.5938 1.5875 21.5626C2.80625 22.8376 4.40625 22.7938 5.11875 22.9313C7.68125 23.1751 16 23.2501 16 23.2501C16 23.2501 22.725 23.2376 27.2 22.9188C27.825 22.8438 29.1875 22.8376 30.4062 21.5626C31.3688 20.5938 31.6812 18.3876 31.6812 18.3876C31.6812 18.3876 32 15.8001 32 13.2063V10.7813C32 8.19384 31.6812 5.60009 31.6812 5.60009ZM12.6938 16.1501V7.15634L21.3375 11.6688L12.6938 16.1501Z" fill="#676767"/>
</svg>
